<svg width="25" height="24" viewBox="0 0 25 24" fill="none" xmlns="http://www.w3.org/2000/svg">
<g clip-path="url(#clip0)">
<path d="M22.5 12C22.5 17.5228 18.0228 22 12.5 22C6.97715 22 2.5 17.5228 2.5 12C2.5 6.47715 6.97715 2 12.5 2C14.5452 2 16.447 2.61398 18.0312 3.66768C18.4425 3.94125 18.9914 3.93063 19.36 3.60182C19.8207 3.19092 19.8119 2.46423 19.3037 2.11383C17.3702 0.780629 15.0262 0 12.5 0C5.87258 0 0.5 5.37258 0.5 12C0.5 18.6274 5.87258 24 12.5 24C19.1274 24 24.5 18.6274 24.5 12C24.5 9.80329 23.9097 7.74444 22.8792 5.9734C22.5767 5.45362 21.8764 5.37733 21.4276 5.77764C21.0485 6.11576 20.9843 6.68014 21.2324 7.1234C22.0398 8.56605 22.5 10.2293 22.5 12Z" fill="#3EA6DD"/>
<path d="M11 7.5C11 6.94772 11.4477 6.5 12 6.5C12.5523 6.5 13 6.94772 13 7.5V13.5C13 14.0523 12.5523 14.5 12 14.5C11.4477 14.5 11 14.0523 11 13.5V7.5Z" fill="#3EA6DD"/>
<path d="M12 14.5C11.4477 14.5 11 14.0523 11 13.5C11 12.9477 11.4477 12.5 12 12.5H18C18.5523 12.5 19 12.9477 19 13.5C19 14.0523 18.5523 14.5 18 14.5H12Z" fill="#3EA6DD"/>
</g>
<defs>
<clipPath id="clip0">
<rect width="24" height="24" fill="white" transform="translate(0.5)"/>
</clipPath>
</defs>
</svg>
