<svg width="24" height="19" viewBox="0 0 24 19" fill="none" xmlns="http://www.w3.org/2000/svg">
<path fill-rule="evenodd" clip-rule="evenodd" d="M22.3233 7.94062H1.23657C0.585744 7.94062 0 8.53125 0 9.1875C0 9.84375 0.650826 10.4344 1.23657 10.4344H22.3233C23.0393 10.4344 23.625 9.84375 23.625 9.1875C23.625 8.53125 22.9742 7.94062 22.3233 7.94062ZM13.8626 15.8812H1.23657C0.585744 15.8812 0 16.4719 0 17.1281C0 17.7188 0.650826 18.375 1.23657 18.375H13.8626C14.5134 18.375 15.0992 17.7188 15.0992 17.1281C15.0992 16.4719 14.5134 15.8812 13.8626 15.8812ZM1.23657 2.49375H22.3233C23.0393 2.49375 23.625 1.90313 23.625 1.24688C23.625 0.65625 22.9742 0 22.3233 0H1.23657C0.585744 0 0 0.65625 0 1.24688C0 1.90313 0.585744 2.49375 1.23657 2.49375Z" fill="#007CBD"/>
</svg>
