<svg width="18" height="20" viewBox="0 0 18 20" fill="none" xmlns="http://www.w3.org/2000/svg">
<path fill-rule="evenodd" clip-rule="evenodd" d="M9.02615 9.84127C11.7256 9.84127 13.9486 7.61905 13.9486 4.92063C13.9486 2.22222 11.7256 0 9.02615 0C6.32674 0 4.1037 2.22222 4.1037 4.92063C4.1037 7.61905 6.32674 9.84127 9.02615 9.84127ZM9.02615 1.32275C11.0375 1.32275 12.6254 2.91005 12.6254 4.92063C12.6254 6.93122 11.0375 8.51852 9.02615 8.51852C7.01483 8.51852 5.42694 6.93122 5.42694 4.92063C5.42694 2.91005 7.01483 1.32275 9.02615 1.32275ZM9.87302 11.1111H8.17928C4.15663 11.1111 0.875 14.6032 0.875 18.8889C0.875 19.4709 1.35137 20 1.98652 20H16.0128C16.5951 20 17.1244 19.5238 17.1244 18.8889C17.1773 14.6032 13.8957 11.1111 9.87302 11.1111ZM2.35703 18.6772C2.35703 15.1852 5.05643 12.4339 8.23221 12.4339H9.87302C13.1017 12.4339 15.6953 15.1852 15.8011 18.6772H2.35703ZM13.5781 16.4021C13.5781 16.9312 13.1547 17.3545 12.6254 17.3545C12.0961 17.3545 11.6726 16.9312 11.6726 16.4021C11.6726 15.873 12.0961 15.3968 12.6254 15.3968C13.1547 15.3968 13.5781 15.873 13.5781 16.4021Z" fill="#666666"/>
</svg>
